<svg width="127" height="62" viewBox="0 0 127 62" fill="none" xmlns="http://www.w3.org/2000/svg">
<path d="M51.476 12.3472H53.3252C53.5159 12.3475 53.6986 12.4235 53.8333 12.5584C53.968 12.6933 54.0437 12.8762 54.0437 13.0668V47.5464C54.0437 47.737 53.968 47.9199 53.8333 48.0548C53.6986 48.1897 53.5159 48.2657 53.3252 48.266H50.8627C50.6954 48.2658 50.5334 48.2074 50.4044 48.1008C50.2755 47.9942 50.1876 47.8461 50.1559 47.6819L45.7307 24.1402C45.7296 24.1294 45.7243 24.1194 45.7159 24.1125C45.7074 24.1056 45.6966 24.1024 45.6858 24.1034C45.6749 24.1045 45.6649 24.1099 45.658 24.1183C45.6511 24.1267 45.6479 24.1376 45.649 24.1484V47.5487C45.6486 47.7393 45.5729 47.9219 45.4383 48.0568C45.3036 48.1917 45.1211 48.2677 44.9305 48.2683H43.0812C42.8905 48.268 42.7076 48.1921 42.5727 48.0572C42.4379 47.9223 42.3619 47.7395 42.3616 47.5487V13.0668C42.3616 12.876 42.4374 12.6929 42.5724 12.558C42.7074 12.423 42.8904 12.3472 43.0812 12.3472H45.4247C45.5921 12.347 45.7543 12.4052 45.8833 12.5119C46.0124 12.6185 46.1001 12.7669 46.1314 12.9313L50.6746 37.1248C50.6757 37.1357 50.681 37.1456 50.6894 37.1525C50.6979 37.1594 50.7087 37.1627 50.7195 37.1616C50.7304 37.1605 50.7404 37.1552 50.7473 37.1468C50.7542 37.1383 50.7574 37.1275 50.7563 37.1166V13.0668C50.7563 12.876 50.8322 12.6929 50.9671 12.558C51.1021 12.423 51.2851 12.3472 51.476 12.3472Z" fill="url(#paint0_linear_6218_13)"/>
<path d="M66.7222 14.6252C66.7222 14.8159 66.6465 14.9987 66.5118 15.1336C66.3771 15.2686 66.1944 15.3445 66.0038 15.3448H63.651C63.4601 15.3448 63.2771 15.4206 63.1421 15.5556C63.0072 15.6905 62.9314 15.8736 62.9314 16.0644V28.0806C62.9317 28.2712 63.0076 28.454 63.1426 28.5887C63.2775 28.7234 63.4603 28.799 63.651 28.799H66.0038C66.1943 28.7996 66.3769 28.8757 66.5115 29.0106C66.6461 29.1454 66.7219 29.3281 66.7222 29.5186V31.0782C66.7219 31.2686 66.6461 31.4512 66.5114 31.5859C66.3768 31.7205 66.1942 31.7963 66.0038 31.7966H63.651C63.4602 31.7969 63.2774 31.8729 63.1425 32.0078C63.0076 32.1426 62.9317 32.3255 62.9314 32.5163V44.5488C62.9314 44.7396 63.0072 44.9226 63.1421 45.0576C63.2771 45.1926 63.4601 45.2684 63.651 45.2684H66.0038C66.1942 45.2687 66.3768 45.3445 66.5114 45.4791C66.6461 45.6138 66.7219 45.7964 66.7222 45.9868V47.5464C66.7219 47.7369 66.6461 47.9196 66.5115 48.0545C66.3769 48.1893 66.1943 48.2654 66.0038 48.266H59.8578C59.6673 48.2654 59.4847 48.1893 59.3501 48.0545C59.2155 47.9196 59.1397 47.7369 59.1394 47.5464V13.0668C59.1394 12.8762 59.215 12.6933 59.3498 12.5584C59.4845 12.4235 59.6672 12.3475 59.8578 12.3472H66.0014C66.1921 12.3475 66.3748 12.4235 66.5095 12.5584C66.6442 12.6933 66.7199 12.8762 66.7199 13.0668V14.6264L66.7222 14.6252Z" fill="url(#paint1_linear_6218_13)"/>
<path d="M82.3247 48.2718H80.5187C80.3543 48.2718 80.1949 48.2153 80.0673 48.1117C79.9397 48.0081 79.8515 47.8638 79.8178 47.7029L77.5573 37.0722C77.5523 37.0493 77.5396 37.0288 77.5213 37.014C77.5031 36.9993 77.4803 36.9912 77.4568 36.9912C77.4333 36.9912 77.4106 36.9993 77.3923 37.014C77.374 37.0288 77.3613 37.0493 77.3563 37.0722L75.0959 47.7029C75.0619 47.8637 74.9737 48.0079 74.8461 48.1115C74.7186 48.215 74.5593 48.2716 74.395 48.2718H72.5912C72.4843 48.2714 72.3788 48.2471 72.2824 48.2008C72.186 48.1544 72.1012 48.0872 72.0341 48.004C71.9669 47.9207 71.9192 47.8236 71.8943 47.7195C71.8695 47.6155 71.8681 47.5073 71.8903 47.4027L75.2991 31.3714C75.4488 30.6671 75.4488 29.9391 75.2991 29.2348L71.8903 13.2164C71.8683 13.1118 71.8699 13.0036 71.8948 12.8997C71.9198 12.7958 71.9675 12.6987 72.0346 12.6155C72.1017 12.5323 72.1864 12.4651 72.2827 12.4187C72.379 12.3723 72.4844 12.3479 72.5912 12.3472H74.3985C74.5627 12.3478 74.7217 12.4046 74.8492 12.5081C74.9767 12.6116 75.065 12.7556 75.0994 12.9161L77.3528 23.5187C77.3578 23.5417 77.3705 23.5622 77.3888 23.577C77.4071 23.5917 77.4298 23.5998 77.4533 23.5998C77.4768 23.5998 77.4996 23.5917 77.5178 23.577C77.5361 23.5622 77.5488 23.5417 77.5538 23.5187L79.8084 12.9161C79.8424 12.7554 79.9306 12.6111 80.0581 12.5076C80.1857 12.404 80.345 12.3474 80.5093 12.3472H82.3177C82.4247 12.3477 82.5301 12.3719 82.6265 12.4183C82.7229 12.4646 82.8078 12.5318 82.8749 12.6151C82.942 12.6983 82.9898 12.7955 83.0146 12.8995C83.0395 13.0035 83.0409 13.1117 83.0186 13.2164L79.6215 29.2348C79.4708 29.939 79.4708 30.6672 79.6215 31.3714L83.028 47.4027C83.0505 47.5075 83.0492 47.616 83.0243 47.7203C82.9994 47.8246 82.9515 47.922 82.884 48.0053C82.8166 48.0886 82.7314 48.1558 82.6346 48.2019C82.5378 48.2481 82.4319 48.2719 82.3247 48.2718Z" fill="url(#paint2_linear_6218_13)"/>
<path d="M88.8491 12.3472H98.7847C98.9754 12.3475 99.1581 12.4235 99.2928 12.5584C99.4275 12.6933 99.5032 12.8762 99.5032 13.0668V14.6264C99.5029 14.8168 99.4271 14.9994 99.2924 15.1341C99.1577 15.2687 98.9752 15.3445 98.7847 15.3448H96.432C96.2412 15.3451 96.0583 15.421 95.9235 15.5559C95.7886 15.6908 95.7127 15.8737 95.7123 16.0644V47.5487C95.712 47.7393 95.6363 47.9219 95.5016 48.0568C95.367 48.1917 95.1845 48.2677 94.9939 48.2683H92.6411C92.4506 48.2677 92.268 48.1917 92.1334 48.0568C91.9988 47.9219 91.923 47.7393 91.9227 47.5487V16.0644C91.9227 15.8736 91.8469 15.6905 91.7119 15.5556C91.577 15.4206 91.3939 15.3448 91.2031 15.3448H88.8515C88.6608 15.3448 88.478 15.2692 88.3431 15.1345C88.2081 14.9998 88.1322 14.817 88.1319 14.6264V13.0668C88.1319 12.8764 88.2074 12.6937 88.3418 12.5588C88.4763 12.4239 88.6587 12.3478 88.8491 12.3472Z" fill="url(#paint3_linear_6218_13)"/>
<path d="M112.956 12.3472H115.309C115.5 12.3472 115.683 12.423 115.818 12.558C115.953 12.6929 116.029 12.876 116.029 13.0668V47.5487C116.028 47.7395 115.952 47.9223 115.817 48.0572C115.683 48.1921 115.5 48.268 115.309 48.2683H112.956C112.766 48.2677 112.583 48.1917 112.448 48.0568C112.314 47.9219 112.238 47.7393 112.238 47.5487V32.5163C112.237 32.3255 112.162 32.1426 112.027 32.0078C111.892 31.8729 111.709 31.7969 111.518 31.7966H109.167C108.976 31.7969 108.793 31.8729 108.658 32.0078C108.523 32.1426 108.447 32.3255 108.447 32.5163V47.5487C108.447 47.7393 108.371 47.9219 108.236 48.0568C108.102 48.1917 107.919 48.2677 107.728 48.2683H105.376C105.185 48.268 105.002 48.1921 104.867 48.0572C104.732 47.9223 104.656 47.7395 104.656 47.5487V13.0668C104.656 12.876 104.732 12.6929 104.867 12.558C105.002 12.423 105.185 12.3472 105.376 12.3472H107.728C107.919 12.3475 108.102 12.4235 108.237 12.5584C108.371 12.6933 108.447 12.8762 108.447 13.0668V28.0806C108.447 28.2712 108.523 28.454 108.658 28.5887C108.793 28.7234 108.976 28.799 109.167 28.799H111.518C111.709 28.799 111.892 28.7234 112.027 28.5887C112.161 28.454 112.237 28.2712 112.238 28.0806V13.0668C112.238 12.8762 112.313 12.6933 112.448 12.5584C112.583 12.4235 112.766 12.3475 112.956 12.3472Z" fill="url(#paint4_linear_6218_13)"/>
<path d="M19.3293 32.3223L19.3351 32.3574C18.0139 33.4088 17.438 34.9601 17.438 37.0945V37.5057C17.438 40.2498 18.8889 42.1049 21.994 43.1761C22.6945 43.3338 23.4092 43.4195 24.1271 43.432C26.9565 43.432 28.8478 42.1773 29.9144 39.5979C30.1644 38.7206 30.467 37.5793 30.467 36.4788V27.4685C29.2263 28.5304 27.6633 29.2605 25.8327 29.785C21.4601 30.9112 19.8749 31.7885 19.3328 32.3282L19.3293 32.3223Z" fill="url(#paint5_linear_6218_13)"/>
<path fill-rule="evenodd" clip-rule="evenodd" d="M10.1531 12.7923C10.0859 12.8806 10.0327 12.9787 9.99538 13.0832V47.8957C10.0201 47.9824 10.0596 48.0642 10.1122 48.1375C10.1911 48.1912 10.2808 48.2271 10.375 48.2426H36.8103C36.9231 48.2161 37.0303 48.1698 37.1269 48.106C37.1951 48.0168 37.2487 47.9175 37.2858 47.8116V13.1451C37.2494 13.0222 37.1921 12.9064 37.1164 12.8028C37.03 12.7152 36.7286 12.686 36.7286 12.686H10.4685C10.3554 12.6988 10.2472 12.7389 10.1531 12.8028V12.7923ZM32.9447 35.8737C32.9447 38.8468 32.0896 41.0453 30.5149 42.5955C28.814 44.2591 26.5512 45.0663 23.7311 45.0663C19.7195 45.0663 16.82 43.5056 15.1355 40.425L15.1074 40.3783C14.6586 39.2741 14.435 38.0913 14.4497 36.8994C14.4497 33.3726 16.5946 30.9088 20.8235 29.5747C26.2988 27.9731 28.1037 27.0701 28.6504 26.5947C29.7369 25.7372 30.2614 24.6344 30.2614 23.2069C30.2614 20.6497 29.0932 18.895 26.6785 17.8448C25.8827 17.5132 25.0312 17.3356 24.1692 17.3214C20.8305 17.3214 18.9123 18.6579 18.2114 21.4102C18.0485 22.3056 18.0503 23.1274 18.0521 23.9742C18.0523 24.0631 18.0525 24.1523 18.0525 24.2419V24.6846H15.285V24.4779H15.3691V23.6368H15.3002C15.4252 20.9499 16.403 19.0165 18.1985 17.3845L18.2546 17.3658C19.862 16.2467 21.8269 15.7128 24.2393 15.7128C27.8724 15.7128 30.585 17.1147 32.1691 19.8705C32.6363 20.749 32.9424 21.8295 32.9424 23.2746L32.9447 35.8737Z" fill="url(#paint6_linear_6218_13)"/>
<defs>
<linearGradient id="paint0_linear_6218_13" x1="63.012" y1="44.8872" x2="63.012" y2="25.9616" gradientUnits="userSpaceOnUse">
<stop stop-color="#3971B6"/>
<stop offset="1" stop-color="#61C2D7"/>
</linearGradient>
<linearGradient id="paint1_linear_6218_13" x1="63.012" y1="44.8872" x2="63.012" y2="25.9616" gradientUnits="userSpaceOnUse">
<stop stop-color="#3971B6"/>
<stop offset="1" stop-color="#61C2D7"/>
</linearGradient>
<linearGradient id="paint2_linear_6218_13" x1="63.012" y1="44.8872" x2="63.012" y2="25.9616" gradientUnits="userSpaceOnUse">
<stop stop-color="#3971B6"/>
<stop offset="1" stop-color="#61C2D7"/>
</linearGradient>
<linearGradient id="paint3_linear_6218_13" x1="63.012" y1="44.8872" x2="63.012" y2="25.9616" gradientUnits="userSpaceOnUse">
<stop stop-color="#3971B6"/>
<stop offset="1" stop-color="#61C2D7"/>
</linearGradient>
<linearGradient id="paint4_linear_6218_13" x1="63.012" y1="44.8872" x2="63.012" y2="25.9616" gradientUnits="userSpaceOnUse">
<stop stop-color="#3971B6"/>
<stop offset="1" stop-color="#61C2D7"/>
</linearGradient>
<linearGradient id="paint5_linear_6218_13" x1="63.012" y1="44.8872" x2="63.012" y2="25.9616" gradientUnits="userSpaceOnUse">
<stop stop-color="#3971B6"/>
<stop offset="1" stop-color="#61C2D7"/>
</linearGradient>
<linearGradient id="paint6_linear_6218_13" x1="63.012" y1="44.8872" x2="63.012" y2="25.9616" gradientUnits="userSpaceOnUse">
<stop stop-color="#3971B6"/>
<stop offset="1" stop-color="#61C2D7"/>
</linearGradient>
</defs>
</svg>
