<svg width="32" height="33" viewBox="0 0 32 33" fill="none" xmlns="http://www.w3.org/2000/svg">
<rect y="0.129032" width="32" height="32" rx="16" fill="#E6EBF2"/>
<mask id="mask0_6218_24" style="mask-type:alpha" maskUnits="userSpaceOnUse" x="0" y="0" width="32" height="33">
<rect y="0.12915" width="32" height="32" rx="16" fill="#E6EBF2"/>
</mask>
<g mask="url(#mask0_6218_24)">
<path d="M10.4799 11.4909C10.4799 11.4839 10.4803 11.4765 10.481 11.469C10.4801 11.4833 10.4799 11.4909 10.4799 11.4909Z" fill="#ADBFD9"/>
<path d="M11.8841 9.24283C11.3825 9.38543 10.967 9.84108 10.5863 10.2935C11.3397 9.67412 11.5724 9.7896 11.5724 9.7896C10.5995 9.98416 10.4914 11.2838 10.481 11.469C10.4936 11.3297 10.6191 11.1062 10.7383 10.8939C10.7855 10.8099 10.8318 10.7275 10.8696 10.6529C10.6184 11.334 10.7088 12.7499 10.7702 13.4185C10.6925 13.4738 10.6397 13.5648 10.6397 13.7099C10.6397 13.9544 10.6761 14.1504 10.7079 14.3213C10.7477 14.5355 10.7801 14.7102 10.7243 14.8914C10.6242 15.2171 10.8747 15.9937 11.6514 15.9937C11.6575 15.9937 11.6635 15.9935 11.6694 15.9932C11.7187 16.2934 11.7948 16.5891 11.8975 16.8769C12.1648 17.626 12.6304 18.6593 13.365 19.4807C13.3325 20.0041 13.2572 20.5571 13.0893 20.8039C13.0806 20.8172 13.0715 20.8298 13.0617 20.8415C12.98 20.9398 12.6525 21.0742 12.1811 21.2344C11.7211 21.3905 11.1237 21.5705 10.4835 21.7634C8.63445 22.3205 6.42764 22.9854 6.1381 23.496C5.64536 24.3641 3.87097 32.129 3.87097 32.129H27.871C27.871 32.129 26.0968 24.3641 25.6038 23.496C25.314 22.9857 23.1081 22.321 21.2592 21.7638L21.2589 21.7637C20.6887 21.5919 20.1523 21.4303 19.7167 21.2866C19.2238 21.1243 18.8596 20.9846 18.7209 20.8792C18.7039 20.866 18.6895 20.8534 18.6796 20.8415C18.4932 20.6182 18.4116 20.037 18.3773 19.487C19.1151 18.6646 19.5826 17.6279 19.8504 16.8769C19.9563 16.5801 20.0339 16.2748 20.0832 15.965C20.6663 15.8218 20.8527 15.1798 20.7638 14.8914C20.7062 14.7038 20.7305 14.5358 20.7615 14.3217C20.7844 14.1639 20.8108 13.9812 20.8108 13.7474C20.8108 13.6564 20.7911 13.5857 20.7582 13.531C20.9207 12.7724 21.1657 11.4111 21.0287 10.6156C20.8314 9.46922 19.4507 8.24871 19.4507 8.24871C20.0918 8.49514 20.6095 9.41985 20.6095 9.41985C20.0492 7.9296 18.2436 7.31552 18.1254 7.27675L18.5753 7.42274C16.7013 5.85727 13.8781 6.95424 13.8781 6.95424C14.0874 6.78176 14.7779 6.58449 14.7779 6.58449C13.3883 6.6231 12.7432 7.6381 12.455 8.39151C12.6159 7.77486 12.8894 7.1033 13.3417 6.86484C13.3417 6.86484 12.2734 7.24311 12.0327 8.89332C12.0065 8.51491 12.026 8.11631 12.1475 7.78382C12.1475 7.78382 11.8149 8.20427 11.8841 9.24283Z" fill="#ADBFD9"/>
<path d="M14.4517 32.129L15.1377 25.9845L14.6094 24.6857L15.871 23.6129L17.0538 24.6857L16.6044 25.9845L17.2904 32.129H14.4517Z" fill="#F5F6F5"/>
</g>
</svg>
