<svg width="24" height="24" viewBox="0 0 24 24" fill="none" xmlns="http://www.w3.org/2000/svg">
<path fill-rule="evenodd" clip-rule="evenodd" d="M20.41 19.5899L16.7529 15.9318L16.9804 15.6391C17.9791 14.355 18.58 12.7478 18.58 11C18.58 6.82094 15.179 3.41998 11 3.41998C6.82094 3.41998 3.41998 6.82094 3.41998 11C3.41998 15.179 6.82094 18.58 11 18.58C12.7478 18.58 14.355 17.9791 15.6391 16.9804L15.9318 16.7529L19.5899 20.41C19.7032 20.5232 19.8511 20.58 20 20.58C20.1489 20.58 20.2967 20.5233 20.41 20.41C20.637 20.183 20.6369 19.8169 20.41 19.5899ZM4.57998 11C4.57998 7.45902 7.45902 4.57998 11 4.57998C14.5409 4.57998 17.42 7.45902 17.42 11C17.42 14.5409 14.5409 17.42 11 17.42C7.45902 17.42 4.57998 14.5409 4.57998 11Z" fill="white"/>
</svg>
